<?xml version="1.0" standalone="no"?>
<!DOCTYPE svg PUBLIC "-//W3C//DTD SVG 20010904//EN"
 "http://www.w3.org/TR/2001/REC-SVG-20010904/DTD/svg10.dtd">
<svg version="1.0" xmlns="http://www.w3.org/2000/svg"
 width="172.000000pt" height="278.000000pt" viewBox="0 0 172.000000 278.000000"
 preserveAspectRatio="xMidYMid meet">
<metadata>
Created by potrace 1.16, written by Peter Selinger 2001-2019
</metadata>
<g transform="translate(0.000000,278.000000) scale(0.100000,-0.100000)"
fill="#000000" stroke="none">
<path d="M1276 2679 c-84 -56 -173 -180 -203 -284 -7 -22 -17 -57 -24 -78
l-11 -39 -102 7 c-55 4 -123 11 -150 16 -27 5 -85 9 -130 9 -272 -2 -501 -166
-565 -406 -14 -51 -14 -147 -1 -188 84 -262 112 -325 168 -379 l40 -39 -39
-83 c-21 -46 -39 -91 -39 -102 0 -20 38 -129 66 -190 30 -64 73 -122 104 -138
38 -20 142 -19 200 1 25 9 83 20 130 24 108 11 144 19 199 42 24 10 69 19 99
20 48 1 58 -2 78 -26 33 -38 33 -47 -11 -151 -7 -16 -20 -47 -29 -68 -10 -25
-15 -64 -14 -109 2 -69 1 -71 -30 -98 -18 -15 -52 -33 -75 -40 -23 -7 -53 -16
-67 -21 -14 -4 -54 -9 -90 -11 l-65 -3 4 72 c3 70 2 74 -33 122 -76 103 -158
154 -247 154 -114 0 -219 -100 -219 -209 0 -94 134 -269 250 -326 79 -38 86
-40 180 -49 256 -27 289 -23 420 42 41 20 129 63 195 96 116 56 200 114 258
177 37 41 92 158 105 226 42 208 44 313 8 392 -32 72 -103 140 -190 184 -126
62 -221 76 -321 49 -66 -19 -118 -30 -210 -45 -33 -5 -80 -14 -105 -19 -53
-10 -218 -64 -267 -87 -32 -16 -35 -16 -48 2 -26 35 -17 60 40 112 51 47 57
50 122 55 68 6 100 12 206 41 45 12 107 16 277 16 197 0 223 2 266 20 135 58
221 195 211 339 -6 85 -18 128 -62 217 -39 81 -163 217 -247 273 -27 18 -48
35 -48 40 0 17 113 115 147 126 22 8 69 10 126 7 88 -4 93 -3 120 21 45 43 34
94 -41 184 -25 29 -71 71 -104 93 -54 36 -67 40 -122 40 -53 0 -70 -5 -110
-31z m-211 -626 c22 -6 61 -19 88 -29 l47 -18 -1 -81 c0 -74 -13 -165 -37
-258 -22 -84 -57 -97 -263 -97 -155 0 -160 1 -227 31 -60 26 -70 35 -81 67 -7
20 -19 51 -26 67 -64 145 -61 178 22 256 36 35 61 47 143 68 44 12 282 7 335
-6z"/>
</g>
</svg>
